<svg xmlns="http://www.w3.org/2000/svg" version="1.1" xmlns:xlink="http://www.w3.org/1999/xlink" xmlns:svgjs="http://svgjs.dev/svgjs" width="1440" height="560" preserveAspectRatio="none" viewBox="0 0 1440 560"><g mask="url(&quot;#SvgjsMask1490&quot;)" fill="none"><rect width="1440" height="560" x="0" y="0" fill="rgba(231, 246, 248, 1)"></rect><path d="M-37.94 389.93L-37.94 389.93" stroke="rgba(46, 116, 179, 1)" stroke-width="1.5"></path><path d="M-37.94 389.93L38.68 366.55" stroke="rgba(46, 116, 179, 1)" stroke-width="1.5"></path><path d="M-37.94 389.93L93.99 489.05" stroke="rgba(46, 116, 179, 1)" stroke-width="1.5"></path><path d="M-37.94 389.93L-50.01 554.56" stroke="rgba(46, 116, 179, 1)" stroke-width="1.5"></path><path d="M-37.94 389.93L-87.94 667.58" stroke="rgba(46, 116, 179, 1)" stroke-width="1.5"></path><path d="M-37.94 389.93L229.84 518.87" stroke="rgba(46, 116, 179, 1)" stroke-width="1.5"></path><path d="M-37.94 389.93L261.41 369.61" stroke="rgba(46, 116, 179, 1)" stroke-width="1.5"></path><path d="M-50.01 554.56L-50.01 554.56" stroke="rgba(46, 116, 179, 1)" stroke-width="1.5"></path><path d="M-50.01 554.56L-87.94 667.58" stroke="rgba(46, 116, 179, 1)" stroke-width="1.5"></path><path d="M-50.01 554.56L93.99 489.05" stroke="rgba(46, 116, 179, 1)" stroke-width="1.5"></path><path d="M-50.01 554.56L38.68 366.55" stroke="rgba(46, 116, 179, 1)" stroke-width="1.5"></path><path d="M-50.01 554.56L229.84 518.87" stroke="rgba(46, 116, 179, 1)" stroke-width="1.5"></path><path d="M-50.01 554.56L218.43 653.97" stroke="rgba(46, 116, 179, 1)" stroke-width="1.5"></path><path d="M-87.94 667.58L-87.94 667.58" stroke="rgba(46, 116, 179, 1)" stroke-width="1.5"></path><path d="M38.68 366.55L38.68 366.55" stroke="rgba(46, 116, 179, 1)" stroke-width="1.5"></path><path d="M38.68 366.55L93.99 489.05" stroke="rgba(46, 116, 179, 1)" stroke-width="1.5"></path><path d="M93.99 489.05L93.99 489.05" stroke="rgba(46, 116, 179, 1)" stroke-width="1.5"></path><path d="M93.99 489.05L229.84 518.87" stroke="rgba(46, 116, 179, 1)" stroke-width="1.5"></path><path d="M261.41 369.61L261.41 369.61" stroke="rgba(46, 116, 179, 1)" stroke-width="1.5"></path><path d="M261.41 369.61L364.64 411.36" stroke="rgba(46, 116, 179, 1)" stroke-width="1.5"></path><path d="M261.41 369.61L229.84 518.87" stroke="rgba(46, 116, 179, 1)" stroke-width="1.5"></path><path d="M229.84 518.87L229.84 518.87" stroke="rgba(46, 116, 179, 1)" stroke-width="1.5"></path><path d="M229.84 518.87L218.43 653.97" stroke="rgba(46, 116, 179, 1)" stroke-width="1.5"></path><path d="M229.84 518.87L399.29 542.39" stroke="rgba(46, 116, 179, 1)" stroke-width="1.5"></path><path d="M218.43 653.97L218.43 653.97" stroke="rgba(46, 116, 179, 1)" stroke-width="1.5"></path><path d="M218.43 653.97L388.5 677.29" stroke="rgba(46, 116, 179, 1)" stroke-width="1.5"></path><path d="M218.43 653.97L93.99 489.05" stroke="rgba(46, 116, 179, 1)" stroke-width="1.5"></path><path d="M218.43 653.97L399.29 542.39" stroke="rgba(46, 116, 179, 1)" stroke-width="1.5"></path><path d="M218.43 653.97L364.64 411.36" stroke="rgba(46, 116, 179, 1)" stroke-width="1.5"></path><path d="M364.64 411.36L364.64 411.36" stroke="rgba(46, 116, 179, 1)" stroke-width="1.5"></path><path d="M364.64 411.36L399.29 542.39" stroke="rgba(46, 116, 179, 1)" stroke-width="1.5"></path><path d="M364.64 411.36L502.59 402.22" stroke="rgba(46, 116, 179, 1)" stroke-width="1.5"></path><path d="M399.29 542.39L399.29 542.39" stroke="rgba(46, 116, 179, 1)" stroke-width="1.5"></path><path d="M399.29 542.39L531.63 535.73" stroke="rgba(46, 116, 179, 1)" stroke-width="1.5"></path><path d="M399.29 542.39L388.5 677.29" stroke="rgba(46, 116, 179, 1)" stroke-width="1.5"></path><path d="M399.29 542.39L507.95 638.43" stroke="rgba(46, 116, 179, 1)" stroke-width="1.5"></path><path d="M388.5 677.29L388.5 677.29" stroke="rgba(46, 116, 179, 1)" stroke-width="1.5"></path><path d="M388.5 677.29L507.95 638.43" stroke="rgba(46, 116, 179, 1)" stroke-width="1.5"></path><path d="M388.5 677.29L531.63 535.73" stroke="rgba(46, 116, 179, 1)" stroke-width="1.5"></path><path d="M388.5 677.29L229.84 518.87" stroke="rgba(46, 116, 179, 1)" stroke-width="1.5"></path><path d="M388.5 677.29L364.64 411.36" stroke="rgba(46, 116, 179, 1)" stroke-width="1.5"></path><path d="M502.59 402.22L502.59 402.22" stroke="rgba(46, 116, 179, 1)" stroke-width="1.5"></path><path d="M502.59 402.22L531.63 535.73" stroke="rgba(46, 116, 179, 1)" stroke-width="1.5"></path><path d="M502.59 402.22L658.24 403.75" stroke="rgba(46, 116, 179, 1)" stroke-width="1.5"></path><path d="M502.59 402.22L399.29 542.39" stroke="rgba(46, 116, 179, 1)" stroke-width="1.5"></path><path d="M531.63 535.73L531.63 535.73" stroke="rgba(46, 116, 179, 1)" stroke-width="1.5"></path><path d="M531.63 535.73L507.95 638.43" stroke="rgba(46, 116, 179, 1)" stroke-width="1.5"></path><path d="M507.95 638.43L507.95 638.43" stroke="rgba(46, 116, 179, 1)" stroke-width="1.5"></path><path d="M705.74 200.23L705.74 200.23" stroke="rgba(46, 116, 179, 1)" stroke-width="1.5"></path><path d="M705.74 200.23L826.78 259.04" stroke="rgba(46, 116, 179, 1)" stroke-width="1.5"></path><path d="M705.74 200.23L658.24 403.75" stroke="rgba(46, 116, 179, 1)" stroke-width="1.5"></path><path d="M705.74 200.23L833.72 373.53" stroke="rgba(46, 116, 179, 1)" stroke-width="1.5"></path><path d="M658.24 403.75L658.24 403.75" stroke="rgba(46, 116, 179, 1)" stroke-width="1.5"></path><path d="M658.24 403.75L684.28 495.01" stroke="rgba(46, 116, 179, 1)" stroke-width="1.5"></path><path d="M684.28 495.01L684.28 495.01" stroke="rgba(46, 116, 179, 1)" stroke-width="1.5"></path><path d="M684.28 495.01L826.28 534.25" stroke="rgba(46, 116, 179, 1)" stroke-width="1.5"></path><path d="M684.28 495.01L531.63 535.73" stroke="rgba(46, 116, 179, 1)" stroke-width="1.5"></path><path d="M684.28 495.01L833.72 373.53" stroke="rgba(46, 116, 179, 1)" stroke-width="1.5"></path><path d="M684.28 495.01L665.39 695.73" stroke="rgba(46, 116, 179, 1)" stroke-width="1.5"></path><path d="M665.39 695.73L665.39 695.73" stroke="rgba(46, 116, 179, 1)" stroke-width="1.5"></path><path d="M665.39 695.73L507.95 638.43" stroke="rgba(46, 116, 179, 1)" stroke-width="1.5"></path><path d="M665.39 695.73L862.15 659.16" stroke="rgba(46, 116, 179, 1)" stroke-width="1.5"></path><path d="M665.39 695.73L531.63 535.73" stroke="rgba(46, 116, 179, 1)" stroke-width="1.5"></path><path d="M665.39 695.73L826.28 534.25" stroke="rgba(46, 116, 179, 1)" stroke-width="1.5"></path><path d="M826.78 259.04L826.78 259.04" stroke="rgba(46, 116, 179, 1)" stroke-width="1.5"></path><path d="M826.78 259.04L833.72 373.53" stroke="rgba(46, 116, 179, 1)" stroke-width="1.5"></path><path d="M833.72 373.53L833.72 373.53" stroke="rgba(46, 116, 179, 1)" stroke-width="1.5"></path><path d="M833.72 373.53L986.63 350.92" stroke="rgba(46, 116, 179, 1)" stroke-width="1.5"></path><path d="M833.72 373.53L826.28 534.25" stroke="rgba(46, 116, 179, 1)" stroke-width="1.5"></path><path d="M833.72 373.53L658.24 403.75" stroke="rgba(46, 116, 179, 1)" stroke-width="1.5"></path><path d="M833.72 373.53L951.65 238.6" stroke="rgba(46, 116, 179, 1)" stroke-width="1.5"></path><path d="M826.28 534.25L826.28 534.25" stroke="rgba(46, 116, 179, 1)" stroke-width="1.5"></path><path d="M826.28 534.25L862.15 659.16" stroke="rgba(46, 116, 179, 1)" stroke-width="1.5"></path><path d="M826.28 534.25L984.74 561.52" stroke="rgba(46, 116, 179, 1)" stroke-width="1.5"></path><path d="M862.15 659.16L862.15 659.16" stroke="rgba(46, 116, 179, 1)" stroke-width="1.5"></path><path d="M862.15 659.16L994.61 709.95" stroke="rgba(46, 116, 179, 1)" stroke-width="1.5"></path><path d="M862.15 659.16L984.74 561.52" stroke="rgba(46, 116, 179, 1)" stroke-width="1.5"></path><path d="M988.1 -97.27L988.1 -97.27" stroke="rgba(46, 116, 179, 1)" stroke-width="1.5"></path><path d="M988.1 -97.27L1127.16 -61.67" stroke="rgba(46, 116, 179, 1)" stroke-width="1.5"></path><path d="M988.1 -97.27L978.68 56.71" stroke="rgba(46, 116, 179, 1)" stroke-width="1.5"></path><path d="M988.1 -97.27L1123.91 63.22" stroke="rgba(46, 116, 179, 1)" stroke-width="1.5"></path><path d="M978.68 56.71L978.68 56.71" stroke="rgba(46, 116, 179, 1)" stroke-width="1.5"></path><path d="M978.68 56.71L1123.91 63.22" stroke="rgba(46, 116, 179, 1)" stroke-width="1.5"></path><path d="M978.68 56.71L951.65 238.6" stroke="rgba(46, 116, 179, 1)" stroke-width="1.5"></path><path d="M978.68 56.71L1127.16 -61.67" stroke="rgba(46, 116, 179, 1)" stroke-width="1.5"></path><path d="M978.68 56.71L1101.29 235.26" stroke="rgba(46, 116, 179, 1)" stroke-width="1.5"></path><path d="M951.65 238.6L951.65 238.6" stroke="rgba(46, 116, 179, 1)" stroke-width="1.5"></path><path d="M951.65 238.6L986.63 350.92" stroke="rgba(46, 116, 179, 1)" stroke-width="1.5"></path><path d="M951.65 238.6L826.78 259.04" stroke="rgba(46, 116, 179, 1)" stroke-width="1.5"></path><path d="M986.63 350.92L986.63 350.92" stroke="rgba(46, 116, 179, 1)" stroke-width="1.5"></path><path d="M986.63 350.92L1109.73 341.58" stroke="rgba(46, 116, 179, 1)" stroke-width="1.5"></path><path d="M984.74 561.52L984.74 561.52" stroke="rgba(46, 116, 179, 1)" stroke-width="1.5"></path><path d="M984.74 561.52L994.61 709.95" stroke="rgba(46, 116, 179, 1)" stroke-width="1.5"></path><path d="M984.74 561.52L1126.97 513.13" stroke="rgba(46, 116, 179, 1)" stroke-width="1.5"></path><path d="M984.74 561.52L1149.63 691.87" stroke="rgba(46, 116, 179, 1)" stroke-width="1.5"></path><path d="M984.74 561.52L986.63 350.92" stroke="rgba(46, 116, 179, 1)" stroke-width="1.5"></path><path d="M994.61 709.95L994.61 709.95" stroke="rgba(46, 116, 179, 1)" stroke-width="1.5"></path><path d="M994.61 709.95L1149.63 691.87" stroke="rgba(46, 116, 179, 1)" stroke-width="1.5"></path><path d="M994.61 709.95L1126.97 513.13" stroke="rgba(46, 116, 179, 1)" stroke-width="1.5"></path><path d="M1127.16 -61.67L1127.16 -61.67" stroke="rgba(46, 116, 179, 1)" stroke-width="1.5"></path><path d="M1127.16 -61.67L1123.91 63.22" stroke="rgba(46, 116, 179, 1)" stroke-width="1.5"></path><path d="M1127.16 -61.67L1279.42 -57.2" stroke="rgba(46, 116, 179, 1)" stroke-width="1.5"></path><path d="M1123.91 63.22L1123.91 63.22" stroke="rgba(46, 116, 179, 1)" stroke-width="1.5"></path><path d="M1101.29 235.26L1101.29 235.26" stroke="rgba(46, 116, 179, 1)" stroke-width="1.5"></path><path d="M1101.29 235.26L1109.73 341.58" stroke="rgba(46, 116, 179, 1)" stroke-width="1.5"></path><path d="M1101.29 235.26L951.65 238.6" stroke="rgba(46, 116, 179, 1)" stroke-width="1.5"></path><path d="M1109.73 341.58L1109.73 341.58" stroke="rgba(46, 116, 179, 1)" stroke-width="1.5"></path><path d="M1109.73 341.58L1243.56 385.88" stroke="rgba(46, 116, 179, 1)" stroke-width="1.5"></path><path d="M1126.97 513.13L1126.97 513.13" stroke="rgba(46, 116, 179, 1)" stroke-width="1.5"></path><path d="M1126.97 513.13L1292.66 526.48" stroke="rgba(46, 116, 179, 1)" stroke-width="1.5"></path><path d="M1149.63 691.87L1149.63 691.87" stroke="rgba(46, 116, 179, 1)" stroke-width="1.5"></path><path d="M1149.63 691.87L1306.86 645.57" stroke="rgba(46, 116, 179, 1)" stroke-width="1.5"></path><path d="M1149.63 691.87L1126.97 513.13" stroke="rgba(46, 116, 179, 1)" stroke-width="1.5"></path><path d="M1149.63 691.87L1292.66 526.48" stroke="rgba(46, 116, 179, 1)" stroke-width="1.5"></path><path d="M1149.63 691.87L862.15 659.16" stroke="rgba(46, 116, 179, 1)" stroke-width="1.5"></path><path d="M1279.42 -57.2L1279.42 -57.2" stroke="rgba(46, 116, 179, 1)" stroke-width="1.5"></path><path d="M1279.42 -57.2L1388.29 -59.43" stroke="rgba(46, 116, 179, 1)" stroke-width="1.5"></path><path d="M1279.42 -57.2L1308.46 81.75" stroke="rgba(46, 116, 179, 1)" stroke-width="1.5"></path><path d="M1279.42 -57.2L1123.91 63.22" stroke="rgba(46, 116, 179, 1)" stroke-width="1.5"></path><path d="M1279.42 -57.2L1421.2 94.83" stroke="rgba(46, 116, 179, 1)" stroke-width="1.5"></path><path d="M1279.42 -57.2L1278.68 223.98" stroke="rgba(46, 116, 179, 1)" stroke-width="1.5"></path><path d="M1308.46 81.75L1308.46 81.75" stroke="rgba(46, 116, 179, 1)" stroke-width="1.5"></path><path d="M1308.46 81.75L1421.2 94.83" stroke="rgba(46, 116, 179, 1)" stroke-width="1.5"></path><path d="M1308.46 81.75L1278.68 223.98" stroke="rgba(46, 116, 179, 1)" stroke-width="1.5"></path><path d="M1308.46 81.75L1388.29 -59.43" stroke="rgba(46, 116, 179, 1)" stroke-width="1.5"></path><path d="M1308.46 81.75L1123.91 63.22" stroke="rgba(46, 116, 179, 1)" stroke-width="1.5"></path><path d="M1308.46 81.75L1433.36 253.72" stroke="rgba(46, 116, 179, 1)" stroke-width="1.5"></path><path d="M1278.68 223.98L1278.68 223.98" stroke="rgba(46, 116, 179, 1)" stroke-width="1.5"></path><path d="M1278.68 223.98L1433.36 253.72" stroke="rgba(46, 116, 179, 1)" stroke-width="1.5"></path><path d="M1278.68 223.98L1243.56 385.88" stroke="rgba(46, 116, 179, 1)" stroke-width="1.5"></path><path d="M1243.56 385.88L1243.56 385.88" stroke="rgba(46, 116, 179, 1)" stroke-width="1.5"></path><path d="M1243.56 385.88L1292.66 526.48" stroke="rgba(46, 116, 179, 1)" stroke-width="1.5"></path><path d="M1243.56 385.88L1126.97 513.13" stroke="rgba(46, 116, 179, 1)" stroke-width="1.5"></path><path d="M1243.56 385.88L1413.76 351.81" stroke="rgba(46, 116, 179, 1)" stroke-width="1.5"></path><path d="M1292.66 526.48L1292.66 526.48" stroke="rgba(46, 116, 179, 1)" stroke-width="1.5"></path><path d="M1292.66 526.48L1399.65 490.8" stroke="rgba(46, 116, 179, 1)" stroke-width="1.5"></path><path d="M1292.66 526.48L1306.86 645.57" stroke="rgba(46, 116, 179, 1)" stroke-width="1.5"></path><path d="M1306.86 645.57L1306.86 645.57" stroke="rgba(46, 116, 179, 1)" stroke-width="1.5"></path><path d="M1306.86 645.57L1446.45 650.96" stroke="rgba(46, 116, 179, 1)" stroke-width="1.5"></path><path d="M1306.86 645.57L1399.65 490.8" stroke="rgba(46, 116, 179, 1)" stroke-width="1.5"></path><path d="M1306.86 645.57L1126.97 513.13" stroke="rgba(46, 116, 179, 1)" stroke-width="1.5"></path><path d="M1306.86 645.57L1545.49 644.12" stroke="rgba(46, 116, 179, 1)" stroke-width="1.5"></path><path d="M1388.29 -59.43L1388.29 -59.43" stroke="rgba(46, 116, 179, 1)" stroke-width="1.5"></path><path d="M1388.29 -59.43L1421.2 94.83" stroke="rgba(46, 116, 179, 1)" stroke-width="1.5"></path><path d="M1421.2 94.83L1421.2 94.83" stroke="rgba(46, 116, 179, 1)" stroke-width="1.5"></path><path d="M1421.2 94.83L1433.36 253.72" stroke="rgba(46, 116, 179, 1)" stroke-width="1.5"></path><path d="M1421.2 94.83L1278.68 223.98" stroke="rgba(46, 116, 179, 1)" stroke-width="1.5"></path><path d="M1433.36 253.72L1433.36 253.72" stroke="rgba(46, 116, 179, 1)" stroke-width="1.5"></path><path d="M1433.36 253.72L1413.76 351.81" stroke="rgba(46, 116, 179, 1)" stroke-width="1.5"></path><path d="M1433.36 253.72L1579.88 260.33" stroke="rgba(46, 116, 179, 1)" stroke-width="1.5"></path><path d="M1413.76 351.81L1413.76 351.81" stroke="rgba(46, 116, 179, 1)" stroke-width="1.5"></path><path d="M1413.76 351.81L1399.65 490.8" stroke="rgba(46, 116, 179, 1)" stroke-width="1.5"></path><path d="M1413.76 351.81L1594.87 363.42" stroke="rgba(46, 116, 179, 1)" stroke-width="1.5"></path><path d="M1399.65 490.8L1399.65 490.8" stroke="rgba(46, 116, 179, 1)" stroke-width="1.5"></path><path d="M1399.65 490.8L1446.45 650.96" stroke="rgba(46, 116, 179, 1)" stroke-width="1.5"></path><path d="M1399.65 490.8L1243.56 385.88" stroke="rgba(46, 116, 179, 1)" stroke-width="1.5"></path><path d="M1399.65 490.8L1596.08 535.77" stroke="rgba(46, 116, 179, 1)" stroke-width="1.5"></path><path d="M1446.45 650.96L1446.45 650.96" stroke="rgba(46, 116, 179, 1)" stroke-width="1.5"></path><path d="M1446.45 650.96L1545.49 644.12" stroke="rgba(46, 116, 179, 1)" stroke-width="1.5"></path><path d="M1446.45 650.96L1596.08 535.77" stroke="rgba(46, 116, 179, 1)" stroke-width="1.5"></path><path d="M1446.45 650.96L1292.66 526.48" stroke="rgba(46, 116, 179, 1)" stroke-width="1.5"></path><path d="M1588.15 -105.18L1588.15 -105.18" stroke="rgba(46, 116, 179, 1)" stroke-width="1.5"></path><path d="M1588.15 -105.18L1388.29 -59.43" stroke="rgba(46, 116, 179, 1)" stroke-width="1.5"></path><path d="M1588.15 -105.18L1421.2 94.83" stroke="rgba(46, 116, 179, 1)" stroke-width="1.5"></path><path d="M1588.15 -105.18L1279.42 -57.2" stroke="rgba(46, 116, 179, 1)" stroke-width="1.5"></path><path d="M1588.15 -105.18L1308.46 81.75" stroke="rgba(46, 116, 179, 1)" stroke-width="1.5"></path><path d="M1588.15 -105.18L1579.88 260.33" stroke="rgba(46, 116, 179, 1)" stroke-width="1.5"></path><path d="M1579.88 260.33L1579.88 260.33" stroke="rgba(46, 116, 179, 1)" stroke-width="1.5"></path><path d="M1579.88 260.33L1594.87 363.42" stroke="rgba(46, 116, 179, 1)" stroke-width="1.5"></path><path d="M1594.87 363.42L1594.87 363.42" stroke="rgba(46, 116, 179, 1)" stroke-width="1.5"></path><path d="M1594.87 363.42L1596.08 535.77" stroke="rgba(46, 116, 179, 1)" stroke-width="1.5"></path><path d="M1596.08 535.77L1596.08 535.77" stroke="rgba(46, 116, 179, 1)" stroke-width="1.5"></path><path d="M1596.08 535.77L1545.49 644.12" stroke="rgba(46, 116, 179, 1)" stroke-width="1.5"></path><path d="M1596.08 535.77L1413.76 351.81" stroke="rgba(46, 116, 179, 1)" stroke-width="1.5"></path><path d="M1545.49 644.12L1545.49 644.12" stroke="rgba(46, 116, 179, 1)" stroke-width="1.5"></path><circle r="5" cx="-37.94" cy="389.93" fill="rgba(46, 116, 179, 1)"></circle><circle r="5" cx="-50.01" cy="554.56" fill="rgba(46, 116, 179, 1)"></circle><circle r="5" cx="-87.94" cy="667.58" fill="rgba(46, 116, 179, 1)"></circle><circle r="5" cx="38.68" cy="366.55" fill="rgba(46, 116, 179, 1)"></circle><circle r="5" cx="93.99" cy="489.05" fill="rgba(46, 116, 179, 1)"></circle><circle r="5" cx="261.41" cy="369.61" fill="rgba(46, 116, 179, 1)"></circle><circle r="5" cx="229.84" cy="518.87" fill="rgba(46, 116, 179, 1)"></circle><circle r="5" cx="218.43" cy="653.97" fill="rgba(46, 116, 179, 1)"></circle><circle r="5" cx="364.64" cy="411.36" fill="rgba(46, 116, 179, 1)"></circle><circle r="5" cx="399.29" cy="542.39" fill="rgba(46, 116, 179, 1)"></circle><circle r="5" cx="388.5" cy="677.29" fill="rgba(46, 116, 179, 1)"></circle><circle r="5" cx="502.59" cy="402.22" fill="rgba(46, 116, 179, 1)"></circle><circle r="5" cx="531.63" cy="535.73" fill="rgba(46, 116, 179, 1)"></circle><circle r="5" cx="507.95" cy="638.43" fill="rgba(46, 116, 179, 1)"></circle><circle r="5" cx="705.74" cy="200.23" fill="rgba(46, 116, 179, 1)"></circle><circle r="5" cx="658.24" cy="403.75" fill="rgba(46, 116, 179, 1)"></circle><circle r="5" cx="684.28" cy="495.01" fill="rgba(46, 116, 179, 1)"></circle><circle r="5" cx="665.39" cy="695.73" fill="rgba(46, 116, 179, 1)"></circle><circle r="5" cx="826.78" cy="259.04" fill="rgba(46, 116, 179, 1)"></circle><circle r="5" cx="833.72" cy="373.53" fill="rgba(46, 116, 179, 1)"></circle><circle r="5" cx="826.28" cy="534.25" fill="rgba(46, 116, 179, 1)"></circle><circle r="5" cx="862.15" cy="659.16" fill="rgba(46, 116, 179, 1)"></circle><circle r="5" cx="988.1" cy="-97.27" fill="rgba(46, 116, 179, 1)"></circle><circle r="5" cx="978.68" cy="56.71" fill="rgba(46, 116, 179, 1)"></circle><circle r="5" cx="951.65" cy="238.6" fill="rgba(46, 116, 179, 1)"></circle><circle r="5" cx="986.63" cy="350.92" fill="rgba(46, 116, 179, 1)"></circle><circle r="5" cx="984.74" cy="561.52" fill="rgba(46, 116, 179, 1)"></circle><circle r="5" cx="994.61" cy="709.95" fill="rgba(46, 116, 179, 1)"></circle><circle r="5" cx="1127.16" cy="-61.67" fill="rgba(46, 116, 179, 1)"></circle><circle r="5" cx="1123.91" cy="63.22" fill="rgba(46, 116, 179, 1)"></circle><circle r="5" cx="1101.29" cy="235.26" fill="rgba(46, 116, 179, 1)"></circle><circle r="5" cx="1109.73" cy="341.58" fill="rgba(46, 116, 179, 1)"></circle><circle r="5" cx="1126.97" cy="513.13" fill="rgba(46, 116, 179, 1)"></circle><circle r="5" cx="1149.63" cy="691.87" fill="rgba(46, 116, 179, 1)"></circle><circle r="5" cx="1279.42" cy="-57.2" fill="rgba(46, 116, 179, 1)"></circle><circle r="5" cx="1308.46" cy="81.75" fill="rgba(46, 116, 179, 1)"></circle><circle r="5" cx="1278.68" cy="223.98" fill="rgba(46, 116, 179, 1)"></circle><circle r="5" cx="1243.56" cy="385.88" fill="rgba(46, 116, 179, 1)"></circle><circle r="5" cx="1292.66" cy="526.48" fill="rgba(46, 116, 179, 1)"></circle><circle r="5" cx="1306.86" cy="645.57" fill="rgba(46, 116, 179, 1)"></circle><circle r="5" cx="1388.29" cy="-59.43" fill="rgba(46, 116, 179, 1)"></circle><circle r="5" cx="1421.2" cy="94.83" fill="rgba(46, 116, 179, 1)"></circle><circle r="5" cx="1433.36" cy="253.72" fill="rgba(46, 116, 179, 1)"></circle><circle r="5" cx="1413.76" cy="351.81" fill="rgba(46, 116, 179, 1)"></circle><circle r="5" cx="1399.65" cy="490.8" fill="rgba(46, 116, 179, 1)"></circle><circle r="5" cx="1446.45" cy="650.96" fill="rgba(46, 116, 179, 1)"></circle><circle r="5" cx="1588.15" cy="-105.18" fill="rgba(46, 116, 179, 1)"></circle><circle r="5" cx="1579.88" cy="260.33" fill="rgba(46, 116, 179, 1)"></circle><circle r="5" cx="1594.87" cy="363.42" fill="rgba(46, 116, 179, 1)"></circle><circle r="5" cx="1596.08" cy="535.77" fill="rgba(46, 116, 179, 1)"></circle><circle r="5" cx="1545.49" cy="644.12" fill="rgba(46, 116, 179, 1)"></circle><path d="M-96.73 703.47L-96.73 703.47" stroke="hsl(202.79999999999995, 50.9%, 86.4%)" stroke-width="1.5"></path><path d="M-96.73 703.47L-110.89 487.77" stroke="hsl(202.79999999999995, 50.9%, 86.4%)" stroke-width="1.5"></path><path d="M-96.73 703.47L88.26 540.08" stroke="hsl(202.79999999999995, 50.9%, 86.4%)" stroke-width="1.5"></path><path d="M-96.73 703.47L253.34 661.74" stroke="hsl(202.79999999999995, 50.9%, 86.4%)" stroke-width="1.5"></path><path d="M-96.73 703.47L344.11 650.21" stroke="hsl(202.79999999999995, 50.9%, 86.4%)" stroke-width="1.5"></path><path d="M788.24 365.69L788.24 365.69" stroke="hsl(202.79999999999995, 50.9%, 86.4%)" stroke-width="1.5"></path><path d="M788.24 365.69L697.6 382.93" stroke="hsl(202.79999999999995, 50.9%, 86.4%)" stroke-width="1.5"></path><path d="M788.24 365.69L710.3 500.22" stroke="hsl(202.79999999999995, 50.9%, 86.4%)" stroke-width="1.5"></path><path d="M788.24 365.69L965.53 358.34" stroke="hsl(202.79999999999995, 50.9%, 86.4%)" stroke-width="1.5"></path><path d="M788.24 365.69L547.39 395.02" stroke="hsl(202.79999999999995, 50.9%, 86.4%)" stroke-width="1.5"></path><path d="M788.24 365.69L1006.81 254.5" stroke="hsl(202.79999999999995, 50.9%, 86.4%)" stroke-width="1.5"></path><path d="M965.53 358.34L965.53 358.34" stroke="hsl(202.79999999999995, 50.9%, 86.4%)" stroke-width="1.5"></path><path d="M965.53 358.34L1006.81 254.5" stroke="hsl(202.79999999999995, 50.9%, 86.4%)" stroke-width="1.5"></path><path d="M965.53 358.34L1105.15 380.69" stroke="hsl(202.79999999999995, 50.9%, 86.4%)" stroke-width="1.5"></path><path d="M965.53 358.34L993.48 508.88" stroke="hsl(202.79999999999995, 50.9%, 86.4%)" stroke-width="1.5"></path><path d="M1139.85 93.6L1139.85 93.6" stroke="hsl(202.79999999999995, 50.9%, 86.4%)" stroke-width="1.5"></path><path d="M1139.85 93.6L1153.08 248.09" stroke="hsl(202.79999999999995, 50.9%, 86.4%)" stroke-width="1.5"></path><path d="M1139.85 93.6L1241.97 -39.89" stroke="hsl(202.79999999999995, 50.9%, 86.4%)" stroke-width="1.5"></path><path d="M1139.85 93.6L1006.81 254.5" stroke="hsl(202.79999999999995, 50.9%, 86.4%)" stroke-width="1.5"></path><path d="M1288.12 508.59L1288.12 508.59" stroke="hsl(202.79999999999995, 50.9%, 86.4%)" stroke-width="1.5"></path><path d="M1288.12 508.59L1422.7 518.11" stroke="hsl(202.79999999999995, 50.9%, 86.4%)" stroke-width="1.5"></path><path d="M1288.12 508.59L1271.16 663.43" stroke="hsl(202.79999999999995, 50.9%, 86.4%)" stroke-width="1.5"></path><path d="M1288.12 508.59L1256 352.67" stroke="hsl(202.79999999999995, 50.9%, 86.4%)" stroke-width="1.5"></path><path d="M1462.22 366.03L1462.22 366.03" stroke="hsl(202.79999999999995, 50.9%, 86.4%)" stroke-width="1.5"></path><path d="M1462.22 366.03L1556.56 402.8" stroke="hsl(202.79999999999995, 50.9%, 86.4%)" stroke-width="1.5"></path><path d="M1462.22 366.03L1422.7 518.11" stroke="hsl(202.79999999999995, 50.9%, 86.4%)" stroke-width="1.5"></path><path d="M1462.22 366.03L1390.03 202.76" stroke="hsl(202.79999999999995, 50.9%, 86.4%)" stroke-width="1.5"></path><path d="M1462.22 366.03L1537.57 200.46" stroke="hsl(202.79999999999995, 50.9%, 86.4%)" stroke-width="1.5"></path><path d="M1462.22 366.03L1549.13 551.95" stroke="hsl(202.79999999999995, 50.9%, 86.4%)" stroke-width="1.5"></path><path d="M1419.04 695.09L1419.04 695.09" stroke="hsl(202.79999999999995, 50.9%, 86.4%)" stroke-width="1.5"></path><path d="M1419.04 695.09L1271.16 663.43" stroke="hsl(202.79999999999995, 50.9%, 86.4%)" stroke-width="1.5"></path><path d="M1419.04 695.09L1576.03 693.19" stroke="hsl(202.79999999999995, 50.9%, 86.4%)" stroke-width="1.5"></path><path d="M1419.04 695.09L1422.7 518.11" stroke="hsl(202.79999999999995, 50.9%, 86.4%)" stroke-width="1.5"></path><path d="M1556.56 402.8L1556.56 402.8" stroke="hsl(202.79999999999995, 50.9%, 86.4%)" stroke-width="1.5"></path><path d="M1556.56 402.8L1549.13 551.95" stroke="hsl(202.79999999999995, 50.9%, 86.4%)" stroke-width="1.5"></path><path d="M1556.56 402.8L1422.7 518.11" stroke="hsl(202.79999999999995, 50.9%, 86.4%)" stroke-width="1.5"></path><path d="M1556.56 402.8L1537.57 200.46" stroke="hsl(202.79999999999995, 50.9%, 86.4%)" stroke-width="1.5"></path><path d="M1556.56 402.8L1390.03 202.76" stroke="hsl(202.79999999999995, 50.9%, 86.4%)" stroke-width="1.5"></path><path d="M1576.03 693.19L1576.03 693.19" stroke="hsl(202.79999999999995, 50.9%, 86.4%)" stroke-width="1.5"></path><path d="M1576.03 693.19L1549.13 551.95" stroke="hsl(202.79999999999995, 50.9%, 86.4%)" stroke-width="1.5"></path><path d="M1576.03 693.19L1422.7 518.11" stroke="hsl(202.79999999999995, 50.9%, 86.4%)" stroke-width="1.5"></path><path d="M1576.03 693.19L1556.56 402.8" stroke="hsl(202.79999999999995, 50.9%, 86.4%)" stroke-width="1.5"></path><path d="M1576.03 693.19L1271.16 663.43" stroke="hsl(202.79999999999995, 50.9%, 86.4%)" stroke-width="1.5"></path><path d="M1576.03 693.19L1288.12 508.59" stroke="hsl(202.79999999999995, 50.9%, 86.4%)" stroke-width="1.5"></path><path d="M-110.89 487.77L-110.89 487.77" stroke="hsl(202.79999999999995, 50.9%, 86.4%)" stroke-width="1.5"></path><path d="M-110.89 487.77L88.26 540.08" stroke="hsl(202.79999999999995, 50.9%, 86.4%)" stroke-width="1.5"></path><path d="M-110.89 487.77L253.34 661.74" stroke="hsl(202.79999999999995, 50.9%, 86.4%)" stroke-width="1.5"></path><path d="M-110.89 487.77L344.11 650.21" stroke="hsl(202.79999999999995, 50.9%, 86.4%)" stroke-width="1.5"></path><path d="M88.26 540.08L88.26 540.08" stroke="hsl(202.79999999999995, 50.9%, 86.4%)" stroke-width="1.5"></path><path d="M88.26 540.08L253.34 661.74" stroke="hsl(202.79999999999995, 50.9%, 86.4%)" stroke-width="1.5"></path><path d="M253.34 661.74L253.34 661.74" stroke="hsl(202.79999999999995, 50.9%, 86.4%)" stroke-width="1.5"></path><path d="M253.34 661.74L344.11 650.21" stroke="hsl(202.79999999999995, 50.9%, 86.4%)" stroke-width="1.5"></path><path d="M253.34 661.74L543.62 662.59" stroke="hsl(202.79999999999995, 50.9%, 86.4%)" stroke-width="1.5"></path><path d="M253.34 661.74L541.8 549.71" stroke="hsl(202.79999999999995, 50.9%, 86.4%)" stroke-width="1.5"></path><path d="M344.11 650.21L344.11 650.21" stroke="hsl(202.79999999999995, 50.9%, 86.4%)" stroke-width="1.5"></path><path d="M344.11 650.21L543.62 662.59" stroke="hsl(202.79999999999995, 50.9%, 86.4%)" stroke-width="1.5"></path><path d="M344.11 650.21L541.8 549.71" stroke="hsl(202.79999999999995, 50.9%, 86.4%)" stroke-width="1.5"></path><path d="M344.11 650.21L88.26 540.08" stroke="hsl(202.79999999999995, 50.9%, 86.4%)" stroke-width="1.5"></path><path d="M344.11 650.21L547.39 395.02" stroke="hsl(202.79999999999995, 50.9%, 86.4%)" stroke-width="1.5"></path><path d="M344.11 650.21L669.92 684.68" stroke="hsl(202.79999999999995, 50.9%, 86.4%)" stroke-width="1.5"></path><path d="M547.39 395.02L547.39 395.02" stroke="hsl(202.79999999999995, 50.9%, 86.4%)" stroke-width="1.5"></path><path d="M547.39 395.02L697.6 382.93" stroke="hsl(202.79999999999995, 50.9%, 86.4%)" stroke-width="1.5"></path><path d="M547.39 395.02L541.8 549.71" stroke="hsl(202.79999999999995, 50.9%, 86.4%)" stroke-width="1.5"></path><path d="M547.39 395.02L710.3 500.22" stroke="hsl(202.79999999999995, 50.9%, 86.4%)" stroke-width="1.5"></path><path d="M547.39 395.02L543.62 662.59" stroke="hsl(202.79999999999995, 50.9%, 86.4%)" stroke-width="1.5"></path><path d="M541.8 549.71L541.8 549.71" stroke="hsl(202.79999999999995, 50.9%, 86.4%)" stroke-width="1.5"></path><path d="M541.8 549.71L543.62 662.59" stroke="hsl(202.79999999999995, 50.9%, 86.4%)" stroke-width="1.5"></path><path d="M541.8 549.71L710.3 500.22" stroke="hsl(202.79999999999995, 50.9%, 86.4%)" stroke-width="1.5"></path><path d="M543.62 662.59L543.62 662.59" stroke="hsl(202.79999999999995, 50.9%, 86.4%)" stroke-width="1.5"></path><path d="M543.62 662.59L669.92 684.68" stroke="hsl(202.79999999999995, 50.9%, 86.4%)" stroke-width="1.5"></path><path d="M697.6 382.93L697.6 382.93" stroke="hsl(202.79999999999995, 50.9%, 86.4%)" stroke-width="1.5"></path><path d="M710.3 500.22L710.3 500.22" stroke="hsl(202.79999999999995, 50.9%, 86.4%)" stroke-width="1.5"></path><path d="M710.3 500.22L697.6 382.93" stroke="hsl(202.79999999999995, 50.9%, 86.4%)" stroke-width="1.5"></path><path d="M710.3 500.22L669.92 684.68" stroke="hsl(202.79999999999995, 50.9%, 86.4%)" stroke-width="1.5"></path><path d="M669.92 684.68L669.92 684.68" stroke="hsl(202.79999999999995, 50.9%, 86.4%)" stroke-width="1.5"></path><path d="M669.92 684.68L820.25 686.85" stroke="hsl(202.79999999999995, 50.9%, 86.4%)" stroke-width="1.5"></path><path d="M669.92 684.68L541.8 549.71" stroke="hsl(202.79999999999995, 50.9%, 86.4%)" stroke-width="1.5"></path><path d="M820.25 686.85L820.25 686.85" stroke="hsl(202.79999999999995, 50.9%, 86.4%)" stroke-width="1.5"></path><path d="M820.25 686.85L995.82 676.39" stroke="hsl(202.79999999999995, 50.9%, 86.4%)" stroke-width="1.5"></path><path d="M820.25 686.85L710.3 500.22" stroke="hsl(202.79999999999995, 50.9%, 86.4%)" stroke-width="1.5"></path><path d="M820.25 686.85L993.48 508.88" stroke="hsl(202.79999999999995, 50.9%, 86.4%)" stroke-width="1.5"></path><path d="M820.25 686.85L543.62 662.59" stroke="hsl(202.79999999999995, 50.9%, 86.4%)" stroke-width="1.5"></path><path d="M820.25 686.85L1111.63 699.74" stroke="hsl(202.79999999999995, 50.9%, 86.4%)" stroke-width="1.5"></path><path d="M1006.81 254.5L1006.81 254.5" stroke="hsl(202.79999999999995, 50.9%, 86.4%)" stroke-width="1.5"></path><path d="M1006.81 254.5L1153.08 248.09" stroke="hsl(202.79999999999995, 50.9%, 86.4%)" stroke-width="1.5"></path><path d="M993.48 508.88L993.48 508.88" stroke="hsl(202.79999999999995, 50.9%, 86.4%)" stroke-width="1.5"></path><path d="M993.48 508.88L1115.1 558.24" stroke="hsl(202.79999999999995, 50.9%, 86.4%)" stroke-width="1.5"></path><path d="M995.82 676.39L995.82 676.39" stroke="hsl(202.79999999999995, 50.9%, 86.4%)" stroke-width="1.5"></path><path d="M995.82 676.39L1111.63 699.74" stroke="hsl(202.79999999999995, 50.9%, 86.4%)" stroke-width="1.5"></path><path d="M995.82 676.39L993.48 508.88" stroke="hsl(202.79999999999995, 50.9%, 86.4%)" stroke-width="1.5"></path><path d="M995.82 676.39L1115.1 558.24" stroke="hsl(202.79999999999995, 50.9%, 86.4%)" stroke-width="1.5"></path><path d="M1153.08 248.09L1153.08 248.09" stroke="hsl(202.79999999999995, 50.9%, 86.4%)" stroke-width="1.5"></path><path d="M1153.08 248.09L1105.15 380.69" stroke="hsl(202.79999999999995, 50.9%, 86.4%)" stroke-width="1.5"></path><path d="M1153.08 248.09L1256 352.67" stroke="hsl(202.79999999999995, 50.9%, 86.4%)" stroke-width="1.5"></path><path d="M1105.15 380.69L1105.15 380.69" stroke="hsl(202.79999999999995, 50.9%, 86.4%)" stroke-width="1.5"></path><path d="M1105.15 380.69L1256 352.67" stroke="hsl(202.79999999999995, 50.9%, 86.4%)" stroke-width="1.5"></path><path d="M1115.1 558.24L1115.1 558.24" stroke="hsl(202.79999999999995, 50.9%, 86.4%)" stroke-width="1.5"></path><path d="M1115.1 558.24L1111.63 699.74" stroke="hsl(202.79999999999995, 50.9%, 86.4%)" stroke-width="1.5"></path><path d="M1115.1 558.24L1105.15 380.69" stroke="hsl(202.79999999999995, 50.9%, 86.4%)" stroke-width="1.5"></path><path d="M1111.63 699.74L1111.63 699.74" stroke="hsl(202.79999999999995, 50.9%, 86.4%)" stroke-width="1.5"></path><path d="M1111.63 699.74L1271.16 663.43" stroke="hsl(202.79999999999995, 50.9%, 86.4%)" stroke-width="1.5"></path><path d="M1111.63 699.74L993.48 508.88" stroke="hsl(202.79999999999995, 50.9%, 86.4%)" stroke-width="1.5"></path><path d="M1111.63 699.74L1288.12 508.59" stroke="hsl(202.79999999999995, 50.9%, 86.4%)" stroke-width="1.5"></path><path d="M1241.97 -39.89L1241.97 -39.89" stroke="hsl(202.79999999999995, 50.9%, 86.4%)" stroke-width="1.5"></path><path d="M1241.97 -39.89L1409.27 -96.58" stroke="hsl(202.79999999999995, 50.9%, 86.4%)" stroke-width="1.5"></path><path d="M1241.97 -39.89L1389.93 110.02" stroke="hsl(202.79999999999995, 50.9%, 86.4%)" stroke-width="1.5"></path><path d="M1241.97 -39.89L1305.18 221.44" stroke="hsl(202.79999999999995, 50.9%, 86.4%)" stroke-width="1.5"></path><path d="M1305.18 221.44L1305.18 221.44" stroke="hsl(202.79999999999995, 50.9%, 86.4%)" stroke-width="1.5"></path><path d="M1305.18 221.44L1390.03 202.76" stroke="hsl(202.79999999999995, 50.9%, 86.4%)" stroke-width="1.5"></path><path d="M1305.18 221.44L1389.93 110.02" stroke="hsl(202.79999999999995, 50.9%, 86.4%)" stroke-width="1.5"></path><path d="M1305.18 221.44L1256 352.67" stroke="hsl(202.79999999999995, 50.9%, 86.4%)" stroke-width="1.5"></path><path d="M1305.18 221.44L1153.08 248.09" stroke="hsl(202.79999999999995, 50.9%, 86.4%)" stroke-width="1.5"></path><path d="M1305.18 221.44L1139.85 93.6" stroke="hsl(202.79999999999995, 50.9%, 86.4%)" stroke-width="1.5"></path><path d="M1305.18 221.44L1462.22 366.03" stroke="hsl(202.79999999999995, 50.9%, 86.4%)" stroke-width="1.5"></path><path d="M1256 352.67L1256 352.67" stroke="hsl(202.79999999999995, 50.9%, 86.4%)" stroke-width="1.5"></path><path d="M1271.16 663.43L1271.16 663.43" stroke="hsl(202.79999999999995, 50.9%, 86.4%)" stroke-width="1.5"></path><path d="M1409.27 -96.58L1409.27 -96.58" stroke="hsl(202.79999999999995, 50.9%, 86.4%)" stroke-width="1.5"></path><path d="M1409.27 -96.58L1595.17 -52.69" stroke="hsl(202.79999999999995, 50.9%, 86.4%)" stroke-width="1.5"></path><path d="M1409.27 -96.58L1389.93 110.02" stroke="hsl(202.79999999999995, 50.9%, 86.4%)" stroke-width="1.5"></path><path d="M1409.27 -96.58L1602.49 82.88" stroke="hsl(202.79999999999995, 50.9%, 86.4%)" stroke-width="1.5"></path><path d="M1389.93 110.02L1389.93 110.02" stroke="hsl(202.79999999999995, 50.9%, 86.4%)" stroke-width="1.5"></path><path d="M1389.93 110.02L1390.03 202.76" stroke="hsl(202.79999999999995, 50.9%, 86.4%)" stroke-width="1.5"></path><path d="M1389.93 110.02L1537.57 200.46" stroke="hsl(202.79999999999995, 50.9%, 86.4%)" stroke-width="1.5"></path><path d="M1390.03 202.76L1390.03 202.76" stroke="hsl(202.79999999999995, 50.9%, 86.4%)" stroke-width="1.5"></path><path d="M1390.03 202.76L1537.57 200.46" stroke="hsl(202.79999999999995, 50.9%, 86.4%)" stroke-width="1.5"></path><path d="M1422.7 518.11L1422.7 518.11" stroke="hsl(202.79999999999995, 50.9%, 86.4%)" stroke-width="1.5"></path><path d="M1422.7 518.11L1549.13 551.95" stroke="hsl(202.79999999999995, 50.9%, 86.4%)" stroke-width="1.5"></path><path d="M1595.17 -52.69L1595.17 -52.69" stroke="hsl(202.79999999999995, 50.9%, 86.4%)" stroke-width="1.5"></path><path d="M1595.17 -52.69L1602.49 82.88" stroke="hsl(202.79999999999995, 50.9%, 86.4%)" stroke-width="1.5"></path><path d="M1595.17 -52.69L1537.57 200.46" stroke="hsl(202.79999999999995, 50.9%, 86.4%)" stroke-width="1.5"></path><path d="M1595.17 -52.69L1389.93 110.02" stroke="hsl(202.79999999999995, 50.9%, 86.4%)" stroke-width="1.5"></path><path d="M1595.17 -52.69L1390.03 202.76" stroke="hsl(202.79999999999995, 50.9%, 86.4%)" stroke-width="1.5"></path><path d="M1602.49 82.88L1602.49 82.88" stroke="hsl(202.79999999999995, 50.9%, 86.4%)" stroke-width="1.5"></path><path d="M1602.49 82.88L1537.57 200.46" stroke="hsl(202.79999999999995, 50.9%, 86.4%)" stroke-width="1.5"></path><path d="M1602.49 82.88L1389.93 110.02" stroke="hsl(202.79999999999995, 50.9%, 86.4%)" stroke-width="1.5"></path><path d="M1537.57 200.46L1537.57 200.46" stroke="hsl(202.79999999999995, 50.9%, 86.4%)" stroke-width="1.5"></path><path d="M1549.13 551.95L1549.13 551.95" stroke="hsl(202.79999999999995, 50.9%, 86.4%)" stroke-width="1.5"></path><path d="M1549.13 551.95L1419.04 695.09" stroke="hsl(202.79999999999995, 50.9%, 86.4%)" stroke-width="1.5"></path><circle r="25" cx="-96.73" cy="703.47" fill="url(&quot;#SvgjsRadialGradient1491&quot;)"></circle><circle r="25" cx="788.24" cy="365.69" fill="url(&quot;#SvgjsRadialGradient1491&quot;)"></circle><circle r="25" cx="965.53" cy="358.34" fill="url(&quot;#SvgjsRadialGradient1491&quot;)"></circle><circle r="25" cx="1139.85" cy="93.6" fill="url(&quot;#SvgjsRadialGradient1491&quot;)"></circle><circle r="25" cx="1288.12" cy="508.59" fill="url(&quot;#SvgjsRadialGradient1491&quot;)"></circle><circle r="25" cx="1462.22" cy="366.03" fill="url(&quot;#SvgjsRadialGradient1491&quot;)"></circle><circle r="25" cx="1419.04" cy="695.09" fill="url(&quot;#SvgjsRadialGradient1491&quot;)"></circle><circle r="25" cx="1556.56" cy="402.8" fill="url(&quot;#SvgjsRadialGradient1491&quot;)"></circle><circle r="25" cx="1576.03" cy="693.19" fill="url(&quot;#SvgjsRadialGradient1491&quot;)"></circle><circle r="5" cx="-110.89" cy="487.77" fill="#bfdaea"></circle><circle r="5" cx="88.26" cy="540.08" fill="#bfdaea"></circle><circle r="5" cx="253.34" cy="661.74" fill="#bfdaea"></circle><circle r="5" cx="344.11" cy="650.21" fill="#bfdaea"></circle><circle r="5" cx="547.39" cy="395.02" fill="#bfdaea"></circle><circle r="5" cx="541.8" cy="549.71" fill="#bfdaea"></circle><circle r="5" cx="543.62" cy="662.59" fill="#bfdaea"></circle><circle r="5" cx="697.6" cy="382.93" fill="#bfdaea"></circle><circle r="5" cx="710.3" cy="500.22" fill="#bfdaea"></circle><circle r="5" cx="669.92" cy="684.68" fill="#bfdaea"></circle><circle r="5" cx="820.25" cy="686.85" fill="#bfdaea"></circle><circle r="5" cx="1006.81" cy="254.5" fill="#bfdaea"></circle><circle r="5" cx="993.48" cy="508.88" fill="#bfdaea"></circle><circle r="5" cx="995.82" cy="676.39" fill="#bfdaea"></circle><circle r="5" cx="1153.08" cy="248.09" fill="#bfdaea"></circle><circle r="5" cx="1105.15" cy="380.69" fill="#bfdaea"></circle><circle r="5" cx="1115.1" cy="558.24" fill="#bfdaea"></circle><circle r="5" cx="1111.63" cy="699.74" fill="#bfdaea"></circle><circle r="5" cx="1241.97" cy="-39.89" fill="#bfdaea"></circle><circle r="5" cx="1305.18" cy="221.44" fill="#bfdaea"></circle><circle r="5" cx="1256" cy="352.67" fill="#bfdaea"></circle><circle r="5" cx="1271.16" cy="663.43" fill="#bfdaea"></circle><circle r="5" cx="1409.27" cy="-96.58" fill="#bfdaea"></circle><circle r="5" cx="1389.93" cy="110.02" fill="#bfdaea"></circle><circle r="5" cx="1390.03" cy="202.76" fill="#bfdaea"></circle><circle r="5" cx="1422.7" cy="518.11" fill="#bfdaea"></circle><circle r="5" cx="1595.17" cy="-52.69" fill="#bfdaea"></circle><circle r="5" cx="1602.49" cy="82.88" fill="#bfdaea"></circle><circle r="5" cx="1537.57" cy="200.46" fill="#bfdaea"></circle><circle r="5" cx="1549.13" cy="551.95" fill="#bfdaea"></circle></g><defs><mask id="SvgjsMask1490"><rect width="1440" height="560" fill="#ffffff"></rect></mask><radialGradient id="SvgjsRadialGradient1491"><stop stop-color="#ffffff" offset="0.1"></stop><stop stop-color="rgba(126, 180, 213, 1)" offset="0.2"></stop><stop stop-color="rgba(126, 180, 213, 0)" offset="1"></stop></radialGradient></defs></svg>